<svg width="24" height="24" viewBox="0 0 24 24" fill="none" xmlns="http://www.w3.org/2000/svg">
<path d="M19.3593 7.40815V4.72006C19.3593 2.99107 17.9799 1.5838 16.2509 1.5838H7.77641C6.04742 1.5838 4.63965 2.99057 4.63965 4.72006V7.40764H1.36478C0.611065 7.40764 0 8.0187 0 8.77242V11.7392C0 12.4934 0.611065 13.104 1.36478 13.104H1.77148L3.26273 21.2962C3.38059 21.9447 3.94613 22.4162 4.60525 22.4162H19.4226C20.0822 22.4162 20.6467 21.9447 20.7651 21.2957L22.2553 13.104H22.6347C23.3884 13.104 23.9995 12.4934 23.9995 11.7392V8.77242C23.9995 8.0187 23.3884 7.40764 22.6347 7.40764L19.3593 7.40815ZM7.16788 4.72006C7.16788 4.39025 7.4466 4.11203 7.77641 4.11203H16.2524C16.5817 4.11203 16.8321 4.39025 16.8321 4.72006V7.40764H7.16788V4.72006ZM9.05571 17.5388C9.05571 18.0633 8.63636 18.4883 8.11179 18.4883C7.58773 18.4883 7.16788 18.0633 7.16788 17.5388V12.3265C7.16788 11.8019 7.58773 11.3775 8.11179 11.3775C8.63686 11.3775 9.05571 11.803 9.05571 12.3265V17.5388ZM12.9598 17.5388C12.9598 18.0633 12.54 18.4883 12.0159 18.4883C11.4919 18.4883 11.0715 18.0633 11.0715 17.5388V12.3265C11.0715 11.8019 11.4919 11.3775 12.0159 11.3775C12.5405 11.3775 12.9598 11.803 12.9598 12.3265V17.5388ZM16.864 17.5388C16.864 18.0633 16.4441 18.4883 15.9206 18.4883C15.396 18.4883 14.9762 18.0633 14.9762 17.5388V12.3265C14.9762 11.8019 15.396 11.3775 15.9206 11.3775C16.4441 11.3775 16.864 11.803 16.864 12.3265V17.5388Z" fill="#939393"/>
</svg>
